<?xml version="1.0" standalone="no"?>
<svg xmlns:xlink="http://www.w3.org/1999/xlink" id="wave" style="transform:rotate(0deg); transition: 0.3s" viewBox="0 0 1440 220" version="1.1" xmlns="http://www.w3.org/2000/svg"><defs><linearGradient id="sw-gradient-0" x1="0" x2="0" y1="1" y2="0"><stop stop-color="rgba(255, 255, 255, 1)" offset="0%"/><stop stop-color="rgba(255, 255, 255, 1)" offset="100%"/></linearGradient></defs><path style="transform:translate(0, 0px); opacity:1" fill="url(#sw-gradient-0)" d="M0,0L60,25.7C120,51,240,103,360,121C480,139,600,125,720,99C840,73,960,37,1080,25.7C1200,15,1320,29,1440,33C1560,37,1680,29,1800,47.7C1920,66,2040,110,2160,121C2280,132,2400,110,2520,106.3C2640,103,2760,117,2880,106.3C3000,95,3120,59,3240,69.7C3360,81,3480,139,3600,143C3720,147,3840,95,3960,66C4080,37,4200,29,4320,25.7C4440,22,4560,22,4680,22C4800,22,4920,22,5040,18.3C5160,15,5280,7,5400,29.3C5520,51,5640,103,5760,135.7C5880,169,6000,183,6120,157.7C6240,132,6360,66,6480,58.7C6600,51,6720,103,6840,102.7C6960,103,7080,51,7200,25.7C7320,0,7440,0,7560,33C7680,66,7800,132,7920,157.7C8040,183,8160,169,8280,157.7C8400,147,8520,139,8580,135.7L8640,132L8640,220L8580,220C8520,220,8400,220,8280,220C8160,220,8040,220,7920,220C7800,220,7680,220,7560,220C7440,220,7320,220,7200,220C7080,220,6960,220,6840,220C6720,220,6600,220,6480,220C6360,220,6240,220,6120,220C6000,220,5880,220,5760,220C5640,220,5520,220,5400,220C5280,220,5160,220,5040,220C4920,220,4800,220,4680,220C4560,220,4440,220,4320,220C4200,220,4080,220,3960,220C3840,220,3720,220,3600,220C3480,220,3360,220,3240,220C3120,220,3000,220,2880,220C2760,220,2640,220,2520,220C2400,220,2280,220,2160,220C2040,220,1920,220,1800,220C1680,220,1560,220,1440,220C1320,220,1200,220,1080,220C960,220,840,220,720,220C600,220,480,220,360,220C240,220,120,220,60,220L0,220Z"/></svg>